<mxfile host="app.diagrams.net" modified="2024-03-22T08:39:36.237Z" agent="Mozilla/5.0 (Windows NT 10.0; Win64; x64; rv:123.0) Gecko/20100101 Firefox/123.0" version="24.0.7" etag="2JbgX3tDfoZsiD6vbt4V" type="github">
  <diagram name="Page-1" id="YxQY53uUTO5EtvbG5jYU">
    <mxGraphModel>
      <root>
        <mxCell id="0" />
        <mxCell id="1" parent="0" />
      </root>
    </mxGraphModel>
  </diagram>
</mxfile>
